M48
; DRILL file {KiCad 7.0.9} date Wed May  8 14:27:20 2024
; FORMAT={-:-/ absolute / inch / decimal}
; #@! TF.CreationDate,2024-05-08T14:27:20+02:00
; #@! TF.GenerationSoftware,Kicad,Pcbnew,7.0.9
; #@! TF.FileFunction,Plated,1,2,PTH
FMAT,2
INCH
; #@! TA.AperFunction,Plated,PTH,ComponentDrill
T1C0.0236
; #@! TA.AperFunction,Plated,PTH,ComponentDrill
T2C0.0295
; #@! TA.AperFunction,Plated,PTH,ComponentDrill
T3C0.0315
; #@! TA.AperFunction,Plated,PTH,ComponentDrill
T4C0.0394
; #@! TA.AperFunction,Plated,PTH,ComponentDrill
T5C0.0512
%
G90
G05
T1
X5.0591Y-3.248
X5.1181Y-3.248
T2
X4.8283Y-3.198
X4.8283Y-3.248
X4.8283Y-3.298
T3
X4.2488Y-2.7756
X4.6488Y-2.7756
X4.6654Y-2.9102
X4.6654Y-3.3102
X5.2724Y-2.7756
X5.2756Y-2.9102
X5.2756Y-3.3102
X5.6724Y-2.7756
T4
X4.5276Y-3.0118
X4.5276Y-3.2087
X5.4134Y-3.0118
X5.4134Y-3.2087
T5
X4.2717Y-2.9921
X4.2717Y-3.189
X4.8622Y-2.9331
X5.0591Y-2.9331
X5.6693Y-2.9921
X5.6693Y-3.189
T0
M30
