%TF.GenerationSoftware,KiCad,Pcbnew,7.0.9*%
%TF.CreationDate,2024-05-08T14:26:35+02:00*%
%TF.ProjectId,Amplificador de baja se_al,416d706c-6966-4696-9361-646f72206465,rev?*%
%TF.SameCoordinates,Original*%
%TF.FileFunction,Copper,L2,Bot*%
%TF.FilePolarity,Positive*%
%FSLAX46Y46*%
G04 Gerber Fmt 4.6, Leading zero omitted, Abs format (unit mm)*
G04 Created by KiCad (PCBNEW 7.0.9) date 2024-05-08 14:26:35*
%MOMM*%
%LPD*%
G01*
G04 APERTURE LIST*
%TA.AperFunction,ComponentPad*%
%ADD10C,1.200000*%
%TD*%
%TA.AperFunction,ComponentPad*%
%ADD11R,2.600000X2.600000*%
%TD*%
%TA.AperFunction,ComponentPad*%
%ADD12C,2.600000*%
%TD*%
%TA.AperFunction,ComponentPad*%
%ADD13C,2.000000*%
%TD*%
%TA.AperFunction,ComponentPad*%
%ADD14C,1.600000*%
%TD*%
%TA.AperFunction,ComponentPad*%
%ADD15O,1.600000X1.600000*%
%TD*%
%TA.AperFunction,ComponentPad*%
%ADD16O,1.500000X1.050000*%
%TD*%
%TA.AperFunction,ComponentPad*%
%ADD17R,1.500000X1.050000*%
%TD*%
%TA.AperFunction,Conductor*%
%ADD18C,0.500000*%
%TD*%
G04 APERTURE END LIST*
D10*
%TO.P,C3,1*%
%TO.N,Net-(TR1-E)*%
X128500000Y-82500000D03*
%TO.P,C3,2*%
%TO.N,GND*%
X130000000Y-82500000D03*
%TD*%
D11*
%TO.P,J2,1,Pin_1*%
%TO.N,GND*%
X128500000Y-74500000D03*
D12*
%TO.P,J2,2,Pin_2*%
%TO.N,VCC*%
X123500000Y-74500000D03*
%TD*%
D11*
%TO.P,J1,1,Pin_1*%
%TO.N,GND*%
X108500000Y-76000000D03*
D12*
%TO.P,J1,2,Pin_2*%
%TO.N,Net-(J1-Pin_2)*%
X108500000Y-81000000D03*
%TD*%
D11*
%TO.P,J3,1,Pin_1*%
%TO.N,Net-(J3-Pin_1)*%
X144000000Y-81000000D03*
D12*
%TO.P,J3,2,Pin_2*%
%TO.N,GND*%
X144000000Y-76000000D03*
%TD*%
D13*
%TO.P,C1,1*%
%TO.N,Net-(TR1-B)*%
X115000000Y-76500000D03*
%TO.P,C1,2*%
%TO.N,Net-(J1-Pin_2)*%
X115000000Y-81500000D03*
%TD*%
D14*
%TO.P,R4,1*%
%TO.N,Net-(TR1-E)*%
X134000000Y-73920000D03*
D15*
%TO.P,R4,2*%
%TO.N,GND*%
X134000000Y-84080000D03*
%TD*%
%TO.P,R1,2*%
%TO.N,Net-(TR1-B)*%
X118080000Y-70500000D03*
D14*
%TO.P,R1,1*%
%TO.N,VCC*%
X107920000Y-70500000D03*
%TD*%
D16*
%TO.P,TR1,3,E*%
%TO.N,Net-(TR1-E)*%
X122640000Y-83770000D03*
%TO.P,TR1,2,B*%
%TO.N,Net-(TR1-B)*%
X122640000Y-82500000D03*
D17*
%TO.P,TR1,1,C*%
%TO.N,Net-(TR1-C)*%
X122640000Y-81230000D03*
%TD*%
D14*
%TO.P,R3,1*%
%TO.N,VCC*%
X144080000Y-70500000D03*
D15*
%TO.P,R3,2*%
%TO.N,Net-(TR1-C)*%
X133920000Y-70500000D03*
%TD*%
%TO.P,R2,2*%
%TO.N,GND*%
X118500000Y-84080000D03*
D14*
%TO.P,R2,1*%
%TO.N,Net-(TR1-B)*%
X118500000Y-73920000D03*
%TD*%
D13*
%TO.P,C2,1*%
%TO.N,Net-(J3-Pin_1)*%
X137500000Y-81500000D03*
%TO.P,C2,2*%
%TO.N,Net-(TR1-C)*%
X137500000Y-76500000D03*
%TD*%
D18*
%TO.N,Net-(TR1-B)*%
X118500000Y-73920000D02*
X118500000Y-70920000D01*
X118500000Y-70920000D02*
X118080000Y-70500000D01*
%TO.N,Net-(J3-Pin_1)*%
X138000000Y-81000000D02*
X137500000Y-81500000D01*
X144000000Y-81000000D02*
X138000000Y-81000000D01*
%TO.N,Net-(TR1-C)*%
X137500000Y-71500000D02*
X136500000Y-70500000D01*
X136500000Y-70500000D02*
X133920000Y-70500000D01*
X137500000Y-76500000D02*
X137500000Y-71500000D01*
%TO.N,Net-(TR1-E)*%
X134000000Y-79500000D02*
X134000000Y-73920000D01*
X129000000Y-80500000D02*
X133000000Y-80500000D01*
X128500000Y-81000000D02*
X129000000Y-80500000D01*
X133000000Y-80500000D02*
X134000000Y-79500000D01*
X128500000Y-82500000D02*
X128500000Y-81000000D01*
%TO.N,Net-(TR1-C)*%
X125270000Y-81230000D02*
X122640000Y-81230000D01*
X126000000Y-80500000D02*
X125270000Y-81230000D01*
X126000000Y-71500000D02*
X126000000Y-80500000D01*
X127000000Y-70500000D02*
X126000000Y-71500000D01*
X133920000Y-70500000D02*
X127000000Y-70500000D01*
%TO.N,VCC*%
X125000000Y-67000000D02*
X123500000Y-68500000D01*
X143000000Y-67000000D02*
X125000000Y-67000000D01*
X144080000Y-68080000D02*
X143000000Y-67000000D01*
X144080000Y-70500000D02*
X144080000Y-68080000D01*
X109000000Y-67000000D02*
X122000000Y-67000000D01*
X123500000Y-68500000D02*
X123500000Y-74500000D01*
X122000000Y-67000000D02*
X123500000Y-68500000D01*
X107920000Y-70500000D02*
X107920000Y-68080000D01*
X107920000Y-68080000D02*
X109000000Y-67000000D01*
%TO.N,Net-(TR1-E)*%
X127230000Y-83770000D02*
X128500000Y-82500000D01*
X122640000Y-83770000D02*
X127230000Y-83770000D01*
%TO.N,Net-(TR1-B)*%
X122640000Y-82500000D02*
X120500000Y-82500000D01*
X118500000Y-80500000D02*
X120500000Y-82500000D01*
X118500000Y-73920000D02*
X118500000Y-80500000D01*
%TO.N,Net-(J1-Pin_2)*%
X109000000Y-81500000D02*
X108500000Y-81000000D01*
X115000000Y-81500000D02*
X109000000Y-81500000D01*
%TO.N,Net-(TR1-B)*%
X115580000Y-73920000D02*
X118500000Y-73920000D01*
X115000000Y-74500000D02*
X115580000Y-73920000D01*
X115000000Y-76500000D02*
X115000000Y-74500000D01*
%TD*%
%TA.AperFunction,Conductor*%
%TO.N,GND*%
G36*
X121704809Y-67770185D02*
G01*
X121725451Y-67786819D01*
X122713181Y-68774548D01*
X122746666Y-68835871D01*
X122749500Y-68862229D01*
X122749500Y-72785102D01*
X122729815Y-72852141D01*
X122679303Y-72896821D01*
X122597235Y-72936344D01*
X122597232Y-72936345D01*
X122374258Y-73088365D01*
X122176442Y-73271910D01*
X122008185Y-73482898D01*
X121873258Y-73716599D01*
X121873256Y-73716603D01*
X121774666Y-73967804D01*
X121774664Y-73967811D01*
X121714616Y-74230898D01*
X121694451Y-74499995D01*
X121694451Y-74500004D01*
X121714616Y-74769101D01*
X121774664Y-75032188D01*
X121774666Y-75032195D01*
X121837843Y-75193167D01*
X121873257Y-75283398D01*
X122008185Y-75517102D01*
X122111335Y-75646447D01*
X122176442Y-75728089D01*
X122363183Y-75901358D01*
X122374259Y-75911635D01*
X122597226Y-76063651D01*
X122840359Y-76180738D01*
X123098228Y-76260280D01*
X123098229Y-76260280D01*
X123098232Y-76260281D01*
X123365063Y-76300499D01*
X123365068Y-76300499D01*
X123365071Y-76300500D01*
X123365072Y-76300500D01*
X123634928Y-76300500D01*
X123634929Y-76300500D01*
X123634936Y-76300499D01*
X123901767Y-76260281D01*
X123901768Y-76260280D01*
X123901772Y-76260280D01*
X124159641Y-76180738D01*
X124402775Y-76063651D01*
X124625741Y-75911635D01*
X124799942Y-75750000D01*
X124823557Y-75728089D01*
X124823557Y-75728087D01*
X124823561Y-75728085D01*
X124991815Y-75517102D01*
X125018114Y-75471549D01*
X125068679Y-75423336D01*
X125137286Y-75410112D01*
X125202151Y-75436080D01*
X125242680Y-75492993D01*
X125249500Y-75533551D01*
X125249500Y-80137770D01*
X125229815Y-80204809D01*
X125213181Y-80225451D01*
X124995451Y-80443181D01*
X124934128Y-80476666D01*
X124907770Y-80479500D01*
X123908465Y-80479500D01*
X123841426Y-80459815D01*
X123809198Y-80429811D01*
X123747546Y-80347454D01*
X123724709Y-80330358D01*
X123632335Y-80261206D01*
X123632328Y-80261202D01*
X123497482Y-80210908D01*
X123497483Y-80210908D01*
X123437883Y-80204501D01*
X123437881Y-80204500D01*
X123437873Y-80204500D01*
X123437864Y-80204500D01*
X121842129Y-80204500D01*
X121842123Y-80204501D01*
X121782516Y-80210908D01*
X121647671Y-80261202D01*
X121647664Y-80261206D01*
X121532455Y-80347452D01*
X121532452Y-80347455D01*
X121446206Y-80462664D01*
X121446202Y-80462671D01*
X121395908Y-80597517D01*
X121389501Y-80657116D01*
X121389500Y-80657127D01*
X121389500Y-81184814D01*
X121389501Y-81625500D01*
X121369817Y-81692539D01*
X121317013Y-81738294D01*
X121265501Y-81749500D01*
X120862230Y-81749500D01*
X120795191Y-81729815D01*
X120774549Y-81713181D01*
X119286819Y-80225451D01*
X119253334Y-80164128D01*
X119250500Y-80137770D01*
X119250500Y-75046662D01*
X119270185Y-74979623D01*
X119303379Y-74945086D01*
X119339139Y-74920047D01*
X119500047Y-74759139D01*
X119630568Y-74572734D01*
X119726739Y-74366496D01*
X119785635Y-74146692D01*
X119804064Y-73936051D01*
X119805468Y-73920001D01*
X119805468Y-73919998D01*
X119787673Y-73716602D01*
X119785635Y-73693308D01*
X119726739Y-73473504D01*
X119630568Y-73267266D01*
X119508281Y-73092620D01*
X119500048Y-73080862D01*
X119439206Y-73020020D01*
X119339139Y-72919953D01*
X119334373Y-72916615D01*
X119303375Y-72894910D01*
X119259751Y-72840332D01*
X119250500Y-72793336D01*
X119250500Y-71094590D01*
X119262118Y-71042185D01*
X119267174Y-71031342D01*
X119306739Y-70946496D01*
X119365635Y-70726692D01*
X119385468Y-70500000D01*
X119365635Y-70273308D01*
X119306739Y-70053504D01*
X119210568Y-69847266D01*
X119080047Y-69660861D01*
X119080045Y-69660858D01*
X118919141Y-69499954D01*
X118732734Y-69369432D01*
X118732732Y-69369431D01*
X118526497Y-69273261D01*
X118526488Y-69273258D01*
X118306697Y-69214366D01*
X118306693Y-69214365D01*
X118306692Y-69214365D01*
X118306691Y-69214364D01*
X118306686Y-69214364D01*
X118080002Y-69194532D01*
X118079998Y-69194532D01*
X117853313Y-69214364D01*
X117853302Y-69214366D01*
X117633511Y-69273258D01*
X117633502Y-69273261D01*
X117427267Y-69369431D01*
X117427265Y-69369432D01*
X117240858Y-69499954D01*
X117079954Y-69660858D01*
X116949432Y-69847265D01*
X116949431Y-69847267D01*
X116853261Y-70053502D01*
X116853258Y-70053511D01*
X116794366Y-70273302D01*
X116794364Y-70273313D01*
X116774532Y-70499998D01*
X116774532Y-70500001D01*
X116794364Y-70726686D01*
X116794366Y-70726697D01*
X116853258Y-70946488D01*
X116853261Y-70946497D01*
X116949431Y-71152732D01*
X116949432Y-71152734D01*
X117079954Y-71339141D01*
X117240858Y-71500045D01*
X117240861Y-71500047D01*
X117427266Y-71630568D01*
X117633504Y-71726739D01*
X117657593Y-71733193D01*
X117717252Y-71769556D01*
X117747783Y-71832402D01*
X117749500Y-71852968D01*
X117749500Y-72793336D01*
X117729815Y-72860375D01*
X117696625Y-72894910D01*
X117660863Y-72919951D01*
X117499951Y-73080862D01*
X117474912Y-73116623D01*
X117420335Y-73160248D01*
X117373337Y-73169500D01*
X115643705Y-73169500D01*
X115625735Y-73168191D01*
X115601972Y-73164710D01*
X115556533Y-73168686D01*
X115549931Y-73169264D01*
X115544530Y-73169500D01*
X115536289Y-73169500D01*
X115514579Y-73172037D01*
X115503724Y-73173306D01*
X115488419Y-73174645D01*
X115427199Y-73180001D01*
X115420132Y-73181460D01*
X115420120Y-73181404D01*
X115412763Y-73183035D01*
X115412777Y-73183092D01*
X115405743Y-73184759D01*
X115333575Y-73211025D01*
X115260675Y-73235181D01*
X115254126Y-73238236D01*
X115254101Y-73238183D01*
X115247308Y-73241471D01*
X115247334Y-73241523D01*
X115240880Y-73244764D01*
X115176708Y-73286971D01*
X115111347Y-73327285D01*
X115105683Y-73331765D01*
X115105647Y-73331719D01*
X115099798Y-73336484D01*
X115099835Y-73336528D01*
X115094310Y-73341164D01*
X115041599Y-73397033D01*
X114514358Y-73924272D01*
X114500729Y-73936051D01*
X114481468Y-73950390D01*
X114447898Y-73990397D01*
X114444253Y-73994376D01*
X114438409Y-74000222D01*
X114418059Y-74025959D01*
X114368695Y-74084789D01*
X114364729Y-74090819D01*
X114364682Y-74090788D01*
X114360630Y-74097147D01*
X114360679Y-74097177D01*
X114356889Y-74103321D01*
X114324424Y-74172941D01*
X114289960Y-74241566D01*
X114287488Y-74248357D01*
X114287432Y-74248336D01*
X114284960Y-74255450D01*
X114285015Y-74255469D01*
X114282742Y-74262327D01*
X114275471Y-74297543D01*
X114267207Y-74337565D01*
X114257806Y-74377234D01*
X114249498Y-74412286D01*
X114248661Y-74419454D01*
X114248601Y-74419447D01*
X114247835Y-74426945D01*
X114247895Y-74426951D01*
X114247265Y-74434140D01*
X114249500Y-74510916D01*
X114249500Y-75126128D01*
X114229815Y-75193167D01*
X114184522Y-75235179D01*
X114176491Y-75239526D01*
X114120122Y-75283400D01*
X113980257Y-75392261D01*
X113811833Y-75575217D01*
X113675826Y-75783393D01*
X113575936Y-76011118D01*
X113514892Y-76252175D01*
X113514890Y-76252187D01*
X113494357Y-76499994D01*
X113494357Y-76500005D01*
X113514890Y-76747812D01*
X113514892Y-76747824D01*
X113575936Y-76988881D01*
X113675826Y-77216606D01*
X113811833Y-77424782D01*
X113811836Y-77424785D01*
X113980256Y-77607738D01*
X114176491Y-77760474D01*
X114395190Y-77878828D01*
X114630386Y-77959571D01*
X114875665Y-78000500D01*
X115124335Y-78000500D01*
X115369614Y-77959571D01*
X115604810Y-77878828D01*
X115823509Y-77760474D01*
X116019744Y-77607738D01*
X116188164Y-77424785D01*
X116324173Y-77216607D01*
X116424063Y-76988881D01*
X116485108Y-76747821D01*
X116505643Y-76500000D01*
X116503786Y-76477595D01*
X116485109Y-76252187D01*
X116485107Y-76252175D01*
X116424063Y-76011118D01*
X116324173Y-75783393D01*
X116188166Y-75575217D01*
X116166557Y-75551744D01*
X116019744Y-75392262D01*
X115823509Y-75239526D01*
X115815477Y-75235179D01*
X115765891Y-75185961D01*
X115750500Y-75126128D01*
X115750500Y-74862230D01*
X115770185Y-74795191D01*
X115786819Y-74774549D01*
X115854549Y-74706819D01*
X115915872Y-74673334D01*
X115942230Y-74670500D01*
X117373337Y-74670500D01*
X117440376Y-74690185D01*
X117474912Y-74723377D01*
X117499954Y-74759141D01*
X117660859Y-74920046D01*
X117696621Y-74945086D01*
X117740247Y-74999662D01*
X117749500Y-75046662D01*
X117749500Y-80436294D01*
X117748191Y-80454263D01*
X117744710Y-80478025D01*
X117749264Y-80530064D01*
X117749500Y-80535470D01*
X117749500Y-80543709D01*
X117753306Y-80576275D01*
X117754051Y-80584786D01*
X117760000Y-80652791D01*
X117761461Y-80659867D01*
X117761403Y-80659878D01*
X117763034Y-80667237D01*
X117763092Y-80667224D01*
X117764757Y-80674250D01*
X117791025Y-80746424D01*
X117815185Y-80819331D01*
X117818236Y-80825874D01*
X117818182Y-80825898D01*
X117821470Y-80832688D01*
X117821521Y-80832663D01*
X117824761Y-80839113D01*
X117824762Y-80839114D01*
X117824763Y-80839117D01*
X117862619Y-80896675D01*
X117866965Y-80903283D01*
X117907287Y-80968655D01*
X117911766Y-80974319D01*
X117911719Y-80974356D01*
X117916482Y-80980202D01*
X117916528Y-80980164D01*
X117921173Y-80985700D01*
X117977018Y-81038386D01*
X119924267Y-82985634D01*
X119936048Y-82999266D01*
X119950390Y-83018530D01*
X119990420Y-83052119D01*
X119994392Y-83055759D01*
X120000223Y-83061590D01*
X120000222Y-83061590D01*
X120023939Y-83080342D01*
X120025944Y-83081927D01*
X120084786Y-83131302D01*
X120084794Y-83131306D01*
X120090824Y-83135273D01*
X120090790Y-83135323D01*
X120097147Y-83139372D01*
X120097179Y-83139321D01*
X120103319Y-83143108D01*
X120103323Y-83143111D01*
X120138132Y-83159343D01*
X120172941Y-83175575D01*
X120241565Y-83210039D01*
X120241567Y-83210040D01*
X120241569Y-83210040D01*
X120248357Y-83212511D01*
X120248336Y-83212567D01*
X120255455Y-83215042D01*
X120255474Y-83214986D01*
X120262323Y-83217256D01*
X120262326Y-83217256D01*
X120262327Y-83217257D01*
X120337550Y-83232788D01*
X120412279Y-83250500D01*
X120419452Y-83251339D01*
X120419445Y-83251397D01*
X120426946Y-83252163D01*
X120426952Y-83252104D01*
X120434140Y-83252733D01*
X120434143Y-83252732D01*
X120434144Y-83252733D01*
X120510898Y-83250500D01*
X121333749Y-83250500D01*
X121400788Y-83270185D01*
X121446543Y-83322989D01*
X121456487Y-83392147D01*
X121452410Y-83410495D01*
X121404337Y-83568968D01*
X121384538Y-83770000D01*
X121404337Y-83971031D01*
X121462978Y-84164345D01*
X121558198Y-84342488D01*
X121558203Y-84342495D01*
X121686352Y-84498647D01*
X121747278Y-84548647D01*
X121842506Y-84626798D01*
X121842509Y-84626799D01*
X121842511Y-84626801D01*
X122020654Y-84722021D01*
X122020656Y-84722021D01*
X122020659Y-84722023D01*
X122213967Y-84780662D01*
X122364620Y-84795500D01*
X122364623Y-84795500D01*
X122915377Y-84795500D01*
X122915380Y-84795500D01*
X123066033Y-84780662D01*
X123259341Y-84722023D01*
X123437494Y-84626798D01*
X123532722Y-84548647D01*
X123597032Y-84521334D01*
X123611387Y-84520500D01*
X127166295Y-84520500D01*
X127184265Y-84521809D01*
X127208023Y-84525289D01*
X127260068Y-84520735D01*
X127265470Y-84520500D01*
X127273704Y-84520500D01*
X127273709Y-84520500D01*
X127285327Y-84519141D01*
X127306276Y-84516693D01*
X127319028Y-84515577D01*
X127382797Y-84509999D01*
X127382805Y-84509996D01*
X127389866Y-84508539D01*
X127389878Y-84508598D01*
X127397243Y-84506965D01*
X127397229Y-84506906D01*
X127404246Y-84505241D01*
X127404255Y-84505241D01*
X127476423Y-84478974D01*
X127549334Y-84454814D01*
X127549343Y-84454807D01*
X127555882Y-84451760D01*
X127555908Y-84451816D01*
X127562690Y-84448532D01*
X127562663Y-84448478D01*
X127569106Y-84445240D01*
X127569117Y-84445237D01*
X127633283Y-84403034D01*
X127698656Y-84362712D01*
X127698662Y-84362705D01*
X127704325Y-84358229D01*
X127704362Y-84358277D01*
X127710204Y-84353518D01*
X127710164Y-84353471D01*
X127715686Y-84348836D01*
X127715696Y-84348830D01*
X127744740Y-84318045D01*
X127768386Y-84292982D01*
X128231368Y-83829999D01*
X132721127Y-83829999D01*
X132721128Y-83830000D01*
X133684314Y-83830000D01*
X133672359Y-83841955D01*
X133614835Y-83954852D01*
X133595014Y-84080000D01*
X133614835Y-84205148D01*
X133672359Y-84318045D01*
X133684314Y-84330000D01*
X132721128Y-84330000D01*
X132773730Y-84526317D01*
X132773734Y-84526326D01*
X132869865Y-84732482D01*
X133000342Y-84918820D01*
X133161179Y-85079657D01*
X133347517Y-85210134D01*
X133553673Y-85306265D01*
X133553682Y-85306269D01*
X133749999Y-85358872D01*
X133750000Y-85358871D01*
X133750000Y-84395686D01*
X133761955Y-84407641D01*
X133874852Y-84465165D01*
X133968519Y-84480000D01*
X134031481Y-84480000D01*
X134125148Y-84465165D01*
X134238045Y-84407641D01*
X134250000Y-84395686D01*
X134250000Y-85358872D01*
X134446317Y-85306269D01*
X134446326Y-85306265D01*
X134652482Y-85210134D01*
X134838820Y-85079657D01*
X134999657Y-84918820D01*
X135130134Y-84732482D01*
X135226265Y-84526326D01*
X135226269Y-84526317D01*
X135278872Y-84330000D01*
X134315686Y-84330000D01*
X134327641Y-84318045D01*
X134385165Y-84205148D01*
X134404986Y-84080000D01*
X134385165Y-83954852D01*
X134327641Y-83841955D01*
X134315686Y-83830000D01*
X135278872Y-83830000D01*
X135278872Y-83829999D01*
X135226269Y-83633682D01*
X135226265Y-83633673D01*
X135130134Y-83427517D01*
X134999657Y-83241179D01*
X134838820Y-83080342D01*
X134652482Y-82949865D01*
X134446328Y-82853734D01*
X134250000Y-82801127D01*
X134250000Y-83764314D01*
X134238045Y-83752359D01*
X134125148Y-83694835D01*
X134031481Y-83680000D01*
X133968519Y-83680000D01*
X133874852Y-83694835D01*
X133761955Y-83752359D01*
X133750000Y-83764314D01*
X133750000Y-82801127D01*
X133553671Y-82853734D01*
X133347517Y-82949865D01*
X133161179Y-83080342D01*
X133000342Y-83241179D01*
X132869865Y-83427517D01*
X132773734Y-83633673D01*
X132773730Y-83633682D01*
X132721127Y-83829999D01*
X128231368Y-83829999D01*
X128424548Y-83636819D01*
X128485871Y-83603334D01*
X128512229Y-83600500D01*
X128601974Y-83600500D01*
X128601976Y-83600500D01*
X128802456Y-83563024D01*
X128992637Y-83489348D01*
X129166041Y-83381981D01*
X129166823Y-83381267D01*
X129167281Y-83381044D01*
X129170615Y-83378527D01*
X129171107Y-83379178D01*
X129229619Y-83350644D01*
X129299007Y-83358831D01*
X129329473Y-83378409D01*
X129329688Y-83378126D01*
X129333427Y-83380950D01*
X129333916Y-83381264D01*
X129334263Y-83381580D01*
X129507584Y-83488897D01*
X129697678Y-83562539D01*
X129898072Y-83600000D01*
X130101928Y-83600000D01*
X130302321Y-83562539D01*
X130492414Y-83488897D01*
X130580688Y-83434240D01*
X129946448Y-82800000D01*
X130027802Y-82800000D01*
X130110250Y-82784588D01*
X130205610Y-82725543D01*
X130273201Y-82636038D01*
X130303895Y-82528160D01*
X130301286Y-82500000D01*
X130353553Y-82500000D01*
X130937465Y-83083912D01*
X130939247Y-83081552D01*
X130939249Y-83081550D01*
X131030113Y-82899069D01*
X131030116Y-82899063D01*
X131085902Y-82702992D01*
X131085903Y-82702989D01*
X131104713Y-82500000D01*
X131104713Y-82499999D01*
X131085903Y-82297010D01*
X131085902Y-82297007D01*
X131030116Y-82100936D01*
X131030113Y-82100930D01*
X130939244Y-81918441D01*
X130937466Y-81916086D01*
X130937465Y-81916085D01*
X130353553Y-82499999D01*
X130353553Y-82500000D01*
X130301286Y-82500000D01*
X130293546Y-82416479D01*
X130243552Y-82316078D01*
X130160666Y-82240516D01*
X130056080Y-82200000D01*
X129972198Y-82200000D01*
X129940526Y-82205920D01*
X130000000Y-82146447D01*
X130580688Y-81565758D01*
X130580687Y-81565757D01*
X130492418Y-81511104D01*
X130492411Y-81511100D01*
X130463771Y-81500005D01*
X135994357Y-81500005D01*
X136014890Y-81747812D01*
X136014892Y-81747824D01*
X136075936Y-81988881D01*
X136175826Y-82216606D01*
X136311833Y-82424782D01*
X136311835Y-82424784D01*
X136311836Y-82424785D01*
X136480256Y-82607738D01*
X136676491Y-82760474D01*
X136895190Y-82878828D01*
X137130386Y-82959571D01*
X137375665Y-83000500D01*
X137624335Y-83000500D01*
X137869614Y-82959571D01*
X138104810Y-82878828D01*
X138323509Y-82760474D01*
X138519744Y-82607738D01*
X138688164Y-82424785D01*
X138824173Y-82216607D01*
X138924063Y-81988881D01*
X138960737Y-81844059D01*
X138996277Y-81783904D01*
X139058697Y-81752512D01*
X139080943Y-81750500D01*
X142075501Y-81750500D01*
X142142540Y-81770185D01*
X142188295Y-81822989D01*
X142199501Y-81874500D01*
X142199501Y-82347876D01*
X142205908Y-82407483D01*
X142256202Y-82542328D01*
X142256206Y-82542335D01*
X142342452Y-82657544D01*
X142342455Y-82657547D01*
X142457664Y-82743793D01*
X142457671Y-82743797D01*
X142592517Y-82794091D01*
X142592516Y-82794091D01*
X142599444Y-82794835D01*
X142652127Y-82800500D01*
X145347872Y-82800499D01*
X145407483Y-82794091D01*
X145542331Y-82743796D01*
X145657546Y-82657546D01*
X145743796Y-82542331D01*
X145794091Y-82407483D01*
X145800500Y-82347873D01*
X145800499Y-79652128D01*
X145794091Y-79592517D01*
X145792542Y-79588365D01*
X145743797Y-79457671D01*
X145743793Y-79457664D01*
X145657547Y-79342455D01*
X145657544Y-79342452D01*
X145542335Y-79256206D01*
X145542328Y-79256202D01*
X145407482Y-79205908D01*
X145407483Y-79205908D01*
X145347883Y-79199501D01*
X145347881Y-79199500D01*
X145347873Y-79199500D01*
X145347864Y-79199500D01*
X142652129Y-79199500D01*
X142652123Y-79199501D01*
X142592516Y-79205908D01*
X142457671Y-79256202D01*
X142457664Y-79256206D01*
X142342455Y-79342452D01*
X142342452Y-79342455D01*
X142256206Y-79457664D01*
X142256202Y-79457671D01*
X142205908Y-79592517D01*
X142199501Y-79652116D01*
X142199501Y-79652123D01*
X142199500Y-79652135D01*
X142199500Y-80125500D01*
X142179815Y-80192539D01*
X142127011Y-80238294D01*
X142075500Y-80249500D01*
X138373341Y-80249500D01*
X138314324Y-80234555D01*
X138104816Y-80121175D01*
X138104813Y-80121174D01*
X138104810Y-80121172D01*
X138104804Y-80121170D01*
X138104802Y-80121169D01*
X137869616Y-80040429D01*
X137624335Y-79999500D01*
X137375665Y-79999500D01*
X137130383Y-80040429D01*
X136895197Y-80121169D01*
X136895188Y-80121172D01*
X136676493Y-80239524D01*
X136480257Y-80392261D01*
X136311833Y-80575217D01*
X136175826Y-80783393D01*
X136075936Y-81011118D01*
X136014892Y-81252175D01*
X136014890Y-81252187D01*
X135994357Y-81499994D01*
X135994357Y-81500005D01*
X130463771Y-81500005D01*
X130438272Y-81490127D01*
X130382870Y-81447554D01*
X130359280Y-81381787D01*
X130374991Y-81313707D01*
X130425015Y-81264928D01*
X130483066Y-81250500D01*
X132936295Y-81250500D01*
X132954265Y-81251809D01*
X132978023Y-81255289D01*
X133030068Y-81250735D01*
X133035470Y-81250500D01*
X133043704Y-81250500D01*
X133043709Y-81250500D01*
X133055327Y-81249141D01*
X133076276Y-81246693D01*
X133089028Y-81245577D01*
X133152797Y-81239999D01*
X133152805Y-81239996D01*
X133159866Y-81238539D01*
X133159878Y-81238598D01*
X133167243Y-81236965D01*
X133167229Y-81236906D01*
X133174246Y-81235241D01*
X133174255Y-81235241D01*
X133246423Y-81208974D01*
X133319334Y-81184814D01*
X133319343Y-81184807D01*
X133325882Y-81181760D01*
X133325908Y-81181816D01*
X133332690Y-81178532D01*
X133332663Y-81178478D01*
X133339106Y-81175240D01*
X133339117Y-81175237D01*
X133403283Y-81133034D01*
X133468656Y-81092712D01*
X133468662Y-81092705D01*
X133474325Y-81088229D01*
X133474363Y-81088277D01*
X133480195Y-81083526D01*
X133480156Y-81083479D01*
X133485694Y-81078831D01*
X133485693Y-81078831D01*
X133485696Y-81078830D01*
X133538386Y-81022980D01*
X134485642Y-80075724D01*
X134499257Y-80063958D01*
X134518530Y-80049610D01*
X134552123Y-80009574D01*
X134555757Y-80005608D01*
X134561591Y-79999776D01*
X134581930Y-79974052D01*
X134631302Y-79915214D01*
X134631306Y-79915205D01*
X134635274Y-79909175D01*
X134635325Y-79909208D01*
X134639369Y-79902860D01*
X134639317Y-79902828D01*
X134643104Y-79896685D01*
X134643111Y-79896677D01*
X134675572Y-79827063D01*
X134710040Y-79758433D01*
X134710041Y-79758427D01*
X134712508Y-79751650D01*
X134712566Y-79751671D01*
X134715043Y-79744544D01*
X134714986Y-79744526D01*
X134717255Y-79737679D01*
X134717256Y-79737674D01*
X134717257Y-79737672D01*
X134732790Y-79662441D01*
X134750500Y-79587721D01*
X134750500Y-79587719D01*
X134751339Y-79580548D01*
X134751398Y-79580554D01*
X134752164Y-79573054D01*
X134752105Y-79573049D01*
X134752734Y-79565859D01*
X134750500Y-79489082D01*
X134750500Y-75046662D01*
X134770185Y-74979623D01*
X134803379Y-74945086D01*
X134839139Y-74920047D01*
X135000047Y-74759139D01*
X135130568Y-74572734D01*
X135226739Y-74366496D01*
X135285635Y-74146692D01*
X135304064Y-73936051D01*
X135305468Y-73920001D01*
X135305468Y-73919998D01*
X135287673Y-73716602D01*
X135285635Y-73693308D01*
X135226739Y-73473504D01*
X135130568Y-73267266D01*
X135000047Y-73080861D01*
X135000045Y-73080858D01*
X134839141Y-72919954D01*
X134652734Y-72789432D01*
X134652732Y-72789431D01*
X134446497Y-72693261D01*
X134446488Y-72693258D01*
X134226697Y-72634366D01*
X134226693Y-72634365D01*
X134226692Y-72634365D01*
X134226691Y-72634364D01*
X134226686Y-72634364D01*
X134000002Y-72614532D01*
X133999998Y-72614532D01*
X133773313Y-72634364D01*
X133773302Y-72634366D01*
X133553511Y-72693258D01*
X133553502Y-72693261D01*
X133347267Y-72789431D01*
X133347265Y-72789432D01*
X133160858Y-72919954D01*
X132999954Y-73080858D01*
X132869432Y-73267265D01*
X132869431Y-73267267D01*
X132773261Y-73473502D01*
X132773258Y-73473511D01*
X132714366Y-73693302D01*
X132714364Y-73693313D01*
X132694532Y-73919998D01*
X132694532Y-73920001D01*
X132714364Y-74146686D01*
X132714366Y-74146697D01*
X132773258Y-74366488D01*
X132773261Y-74366497D01*
X132869431Y-74572732D01*
X132869432Y-74572734D01*
X132999954Y-74759141D01*
X133160859Y-74920046D01*
X133196621Y-74945086D01*
X133240247Y-74999662D01*
X133249500Y-75046662D01*
X133249500Y-79137770D01*
X133229815Y-79204809D01*
X133213181Y-79225451D01*
X132725451Y-79713181D01*
X132664128Y-79746666D01*
X132637770Y-79749500D01*
X129063705Y-79749500D01*
X129045735Y-79748191D01*
X129021972Y-79744710D01*
X128976533Y-79748686D01*
X128969931Y-79749264D01*
X128964530Y-79749500D01*
X128956289Y-79749500D01*
X128937894Y-79751650D01*
X128923724Y-79753306D01*
X128908419Y-79754645D01*
X128847199Y-79760001D01*
X128840132Y-79761460D01*
X128840120Y-79761404D01*
X128832763Y-79763035D01*
X128832777Y-79763092D01*
X128825743Y-79764759D01*
X128753575Y-79791025D01*
X128680675Y-79815181D01*
X128674126Y-79818236D01*
X128674101Y-79818183D01*
X128667308Y-79821471D01*
X128667334Y-79821523D01*
X128660880Y-79824764D01*
X128596708Y-79866971D01*
X128531347Y-79907285D01*
X128525683Y-79911765D01*
X128525647Y-79911719D01*
X128519798Y-79916484D01*
X128519835Y-79916528D01*
X128514310Y-79921164D01*
X128461599Y-79977033D01*
X128014358Y-80424272D01*
X128000729Y-80436051D01*
X127981468Y-80450390D01*
X127947898Y-80490397D01*
X127944253Y-80494376D01*
X127938409Y-80500222D01*
X127918059Y-80525959D01*
X127868695Y-80584789D01*
X127864729Y-80590819D01*
X127864682Y-80590788D01*
X127860630Y-80597147D01*
X127860679Y-80597177D01*
X127856889Y-80603321D01*
X127824424Y-80672941D01*
X127789960Y-80741566D01*
X127787488Y-80748357D01*
X127787432Y-80748336D01*
X127784960Y-80755450D01*
X127785015Y-80755469D01*
X127782742Y-80762327D01*
X127778393Y-80783393D01*
X127767207Y-80837565D01*
X127754001Y-80893284D01*
X127749498Y-80912286D01*
X127748661Y-80919454D01*
X127748601Y-80919447D01*
X127747835Y-80926945D01*
X127747895Y-80926951D01*
X127747265Y-80934140D01*
X127749500Y-81010916D01*
X127749500Y-81640261D01*
X127729815Y-81707300D01*
X127709040Y-81731897D01*
X127683235Y-81755421D01*
X127560327Y-81918178D01*
X127469422Y-82100739D01*
X127469417Y-82100752D01*
X127413602Y-82296917D01*
X127394438Y-82503743D01*
X127368652Y-82568680D01*
X127358648Y-82579983D01*
X126955451Y-82983181D01*
X126894128Y-83016666D01*
X126867770Y-83019500D01*
X123946251Y-83019500D01*
X123879212Y-82999815D01*
X123833457Y-82947011D01*
X123823513Y-82877853D01*
X123827590Y-82859505D01*
X123845489Y-82800499D01*
X123875662Y-82701033D01*
X123895462Y-82500000D01*
X123875662Y-82298967D01*
X123827589Y-82140493D01*
X123826967Y-82070628D01*
X123864215Y-82011515D01*
X123927509Y-81981925D01*
X123946251Y-81980500D01*
X125206295Y-81980500D01*
X125224265Y-81981809D01*
X125248023Y-81985289D01*
X125300068Y-81980735D01*
X125305470Y-81980500D01*
X125313704Y-81980500D01*
X125313709Y-81980500D01*
X125325327Y-81979141D01*
X125346276Y-81976693D01*
X125359028Y-81975577D01*
X125422797Y-81969999D01*
X125422805Y-81969996D01*
X125429866Y-81968539D01*
X125429878Y-81968598D01*
X125437243Y-81966965D01*
X125437229Y-81966906D01*
X125444246Y-81965241D01*
X125444255Y-81965241D01*
X125516423Y-81938974D01*
X125589334Y-81914814D01*
X125589343Y-81914807D01*
X125595882Y-81911760D01*
X125595908Y-81911816D01*
X125602690Y-81908532D01*
X125602663Y-81908478D01*
X125609106Y-81905240D01*
X125609117Y-81905237D01*
X125673283Y-81863034D01*
X125738656Y-81822712D01*
X125738662Y-81822705D01*
X125744325Y-81818229D01*
X125744363Y-81818277D01*
X125750200Y-81813522D01*
X125750161Y-81813475D01*
X125755696Y-81808830D01*
X125808385Y-81752983D01*
X126314674Y-81246693D01*
X126485642Y-81075724D01*
X126499271Y-81063947D01*
X126518530Y-81049610D01*
X126550828Y-81011118D01*
X126552101Y-81009601D01*
X126555761Y-81005606D01*
X126561590Y-80999778D01*
X126581941Y-80974039D01*
X126615417Y-80934144D01*
X126631302Y-80915214D01*
X126631306Y-80915205D01*
X126635274Y-80909175D01*
X126635325Y-80909208D01*
X126639372Y-80902856D01*
X126639320Y-80902824D01*
X126643112Y-80896675D01*
X126675575Y-80827058D01*
X126710036Y-80758440D01*
X126710040Y-80758433D01*
X126710042Y-80758421D01*
X126712509Y-80751646D01*
X126712567Y-80751667D01*
X126715043Y-80744546D01*
X126714986Y-80744528D01*
X126717257Y-80737673D01*
X126732792Y-80662434D01*
X126735076Y-80652797D01*
X126750500Y-80587721D01*
X126750500Y-80587710D01*
X126751338Y-80580548D01*
X126751398Y-80580555D01*
X126752164Y-80573055D01*
X126752105Y-80573050D01*
X126752734Y-80565860D01*
X126752089Y-80543709D01*
X126750500Y-80489082D01*
X126750500Y-76335807D01*
X126770185Y-76268768D01*
X126822989Y-76223013D01*
X126892147Y-76213069D01*
X126948814Y-76236542D01*
X126957913Y-76243354D01*
X127092620Y-76293596D01*
X127092627Y-76293598D01*
X127152155Y-76299999D01*
X127152172Y-76300000D01*
X128250000Y-76300000D01*
X128250000Y-75104310D01*
X128258817Y-75109158D01*
X128417886Y-75150000D01*
X128540894Y-75150000D01*
X128662933Y-75134583D01*
X128750000Y-75100110D01*
X128750000Y-76300000D01*
X129847828Y-76300000D01*
X129847844Y-76299999D01*
X129907372Y-76293598D01*
X129907379Y-76293596D01*
X130042086Y-76243354D01*
X130042093Y-76243350D01*
X130157187Y-76157190D01*
X130157190Y-76157187D01*
X130243350Y-76042093D01*
X130243354Y-76042086D01*
X130293596Y-75907379D01*
X130293598Y-75907372D01*
X130299999Y-75847844D01*
X130300000Y-75847827D01*
X130300000Y-74750000D01*
X129100728Y-74750000D01*
X129123100Y-74702457D01*
X129153873Y-74541138D01*
X129143561Y-74377234D01*
X129102220Y-74250000D01*
X130300000Y-74250000D01*
X130300000Y-73152172D01*
X130299999Y-73152155D01*
X130293598Y-73092627D01*
X130293596Y-73092620D01*
X130243354Y-72957913D01*
X130243350Y-72957906D01*
X130157190Y-72842812D01*
X130157187Y-72842809D01*
X130042093Y-72756649D01*
X130042086Y-72756645D01*
X129907379Y-72706403D01*
X129907372Y-72706401D01*
X129847844Y-72700000D01*
X128750000Y-72700000D01*
X128750000Y-73895689D01*
X128741183Y-73890842D01*
X128582114Y-73850000D01*
X128459106Y-73850000D01*
X128337067Y-73865417D01*
X128250000Y-73899889D01*
X128250000Y-72700000D01*
X127152155Y-72700000D01*
X127092627Y-72706401D01*
X127092620Y-72706403D01*
X126957913Y-72756645D01*
X126957911Y-72756646D01*
X126948810Y-72763460D01*
X126883345Y-72787876D01*
X126815072Y-72773024D01*
X126765667Y-72723618D01*
X126750500Y-72664192D01*
X126750500Y-71862229D01*
X126770185Y-71795190D01*
X126786819Y-71774548D01*
X127274548Y-71286819D01*
X127335871Y-71253334D01*
X127362229Y-71250500D01*
X132793337Y-71250500D01*
X132860376Y-71270185D01*
X132894912Y-71303377D01*
X132919954Y-71339141D01*
X133080858Y-71500045D01*
X133080861Y-71500047D01*
X133267266Y-71630568D01*
X133473504Y-71726739D01*
X133693308Y-71785635D01*
X133855230Y-71799801D01*
X133919998Y-71805468D01*
X133920000Y-71805468D01*
X133920002Y-71805468D01*
X133976673Y-71800509D01*
X134146692Y-71785635D01*
X134366496Y-71726739D01*
X134572734Y-71630568D01*
X134759139Y-71500047D01*
X134920047Y-71339139D01*
X134945088Y-71303377D01*
X134999665Y-71259752D01*
X135046663Y-71250500D01*
X136137770Y-71250500D01*
X136204809Y-71270185D01*
X136225451Y-71286819D01*
X136713181Y-71774548D01*
X136746666Y-71835871D01*
X136749500Y-71862229D01*
X136749500Y-75126128D01*
X136729815Y-75193167D01*
X136684522Y-75235179D01*
X136676491Y-75239526D01*
X136620122Y-75283400D01*
X136480257Y-75392261D01*
X136311833Y-75575217D01*
X136175826Y-75783393D01*
X136075936Y-76011118D01*
X136014892Y-76252175D01*
X136014890Y-76252187D01*
X135994357Y-76499994D01*
X135994357Y-76500005D01*
X136014890Y-76747812D01*
X136014892Y-76747824D01*
X136075936Y-76988881D01*
X136175826Y-77216606D01*
X136311833Y-77424782D01*
X136311836Y-77424785D01*
X136480256Y-77607738D01*
X136676491Y-77760474D01*
X136895190Y-77878828D01*
X137130386Y-77959571D01*
X137375665Y-78000500D01*
X137624335Y-78000500D01*
X137869614Y-77959571D01*
X138104810Y-77878828D01*
X138323509Y-77760474D01*
X138519744Y-77607738D01*
X138688164Y-77424785D01*
X138824173Y-77216607D01*
X138924063Y-76988881D01*
X138985108Y-76747821D01*
X139005643Y-76500000D01*
X139003786Y-76477595D01*
X138985109Y-76252187D01*
X138985107Y-76252175D01*
X138924063Y-76011118D01*
X138919188Y-76000004D01*
X142194953Y-76000004D01*
X142215113Y-76269026D01*
X142215113Y-76269028D01*
X142275142Y-76532033D01*
X142275148Y-76532052D01*
X142373709Y-76783181D01*
X142373708Y-76783181D01*
X142508602Y-77016822D01*
X142562294Y-77084151D01*
X143397452Y-76248992D01*
X143407188Y-76278956D01*
X143495186Y-76417619D01*
X143614903Y-76530040D01*
X143749510Y-76604041D01*
X142914848Y-77438702D01*
X143097483Y-77563220D01*
X143097485Y-77563221D01*
X143340539Y-77680269D01*
X143340537Y-77680269D01*
X143598337Y-77759790D01*
X143598343Y-77759792D01*
X143865101Y-77799999D01*
X143865110Y-77800000D01*
X144134890Y-77800000D01*
X144134898Y-77799999D01*
X144401656Y-77759792D01*
X144401662Y-77759790D01*
X144659461Y-77680269D01*
X144902521Y-77563218D01*
X145085150Y-77438702D01*
X144247534Y-76601086D01*
X144315629Y-76574126D01*
X144448492Y-76477595D01*
X144553175Y-76351055D01*
X144601631Y-76248079D01*
X145437703Y-77084151D01*
X145437704Y-77084150D01*
X145491393Y-77016828D01*
X145491400Y-77016817D01*
X145626290Y-76783181D01*
X145724851Y-76532052D01*
X145724857Y-76532033D01*
X145784886Y-76269028D01*
X145784886Y-76269026D01*
X145805047Y-76000004D01*
X145805047Y-75999995D01*
X145784886Y-75730973D01*
X145784886Y-75730971D01*
X145724857Y-75467966D01*
X145724851Y-75467947D01*
X145626290Y-75216818D01*
X145626291Y-75216818D01*
X145491397Y-74983177D01*
X145437704Y-74915847D01*
X144602546Y-75751004D01*
X144592812Y-75721044D01*
X144504814Y-75582381D01*
X144385097Y-75469960D01*
X144250489Y-75395958D01*
X145085150Y-74561296D01*
X144902517Y-74436779D01*
X144902516Y-74436778D01*
X144659460Y-74319730D01*
X144659462Y-74319730D01*
X144401662Y-74240209D01*
X144401656Y-74240207D01*
X144134898Y-74200000D01*
X143865101Y-74200000D01*
X143598343Y-74240207D01*
X143598337Y-74240209D01*
X143340538Y-74319730D01*
X143097485Y-74436778D01*
X143097476Y-74436783D01*
X142914848Y-74561296D01*
X143752465Y-75398913D01*
X143684371Y-75425874D01*
X143551508Y-75522405D01*
X143446825Y-75648945D01*
X143398368Y-75751921D01*
X142562295Y-74915848D01*
X142508600Y-74983180D01*
X142373709Y-75216818D01*
X142275148Y-75467947D01*
X142275142Y-75467966D01*
X142215113Y-75730971D01*
X142215113Y-75730973D01*
X142194953Y-75999995D01*
X142194953Y-76000004D01*
X138919188Y-76000004D01*
X138824173Y-75783393D01*
X138688166Y-75575217D01*
X138666557Y-75551744D01*
X138519744Y-75392262D01*
X138323509Y-75239526D01*
X138315477Y-75235179D01*
X138265891Y-75185961D01*
X138250500Y-75126128D01*
X138250500Y-71563705D01*
X138251809Y-71545735D01*
X138252129Y-71543547D01*
X138255289Y-71521977D01*
X138254321Y-71510916D01*
X138250736Y-71469934D01*
X138250500Y-71464528D01*
X138250500Y-71456297D01*
X138250500Y-71456291D01*
X138246693Y-71423724D01*
X138239999Y-71347203D01*
X138239999Y-71347201D01*
X138238539Y-71340129D01*
X138238597Y-71340116D01*
X138236965Y-71332757D01*
X138236906Y-71332772D01*
X138235242Y-71325753D01*
X138235241Y-71325745D01*
X138208974Y-71253576D01*
X138184814Y-71180666D01*
X138184809Y-71180659D01*
X138181760Y-71174118D01*
X138181815Y-71174091D01*
X138178533Y-71167313D01*
X138178480Y-71167340D01*
X138175235Y-71160880D01*
X138133028Y-71096708D01*
X138092710Y-71031342D01*
X138088234Y-71025682D01*
X138088281Y-71025644D01*
X138083519Y-71019799D01*
X138083474Y-71019838D01*
X138078834Y-71014309D01*
X138078832Y-71014307D01*
X138078830Y-71014304D01*
X138048061Y-70985275D01*
X138022965Y-70961597D01*
X137075729Y-70014361D01*
X137063949Y-70000730D01*
X137056482Y-69990701D01*
X137049612Y-69981472D01*
X137044323Y-69977034D01*
X137009587Y-69947886D01*
X137005612Y-69944244D01*
X137002690Y-69941322D01*
X136999780Y-69938411D01*
X136974040Y-69918059D01*
X136915209Y-69868694D01*
X136909180Y-69864729D01*
X136909212Y-69864680D01*
X136902853Y-69860628D01*
X136902822Y-69860679D01*
X136896680Y-69856891D01*
X136896678Y-69856890D01*
X136896677Y-69856889D01*
X136857474Y-69838608D01*
X136827058Y-69824424D01*
X136792894Y-69807267D01*
X136758433Y-69789960D01*
X136758431Y-69789959D01*
X136758430Y-69789959D01*
X136751645Y-69787489D01*
X136751665Y-69787433D01*
X136744549Y-69784959D01*
X136744531Y-69785015D01*
X136737671Y-69782742D01*
X136709841Y-69776996D01*
X136662434Y-69767207D01*
X136613472Y-69755603D01*
X136587719Y-69749499D01*
X136580547Y-69748661D01*
X136580553Y-69748601D01*
X136573055Y-69747835D01*
X136573050Y-69747895D01*
X136565860Y-69747265D01*
X136489083Y-69749500D01*
X135046663Y-69749500D01*
X134979624Y-69729815D01*
X134945088Y-69696623D01*
X134920045Y-69660858D01*
X134759141Y-69499954D01*
X134572734Y-69369432D01*
X134572732Y-69369431D01*
X134366497Y-69273261D01*
X134366488Y-69273258D01*
X134146697Y-69214366D01*
X134146693Y-69214365D01*
X134146692Y-69214365D01*
X134146691Y-69214364D01*
X134146686Y-69214364D01*
X133920002Y-69194532D01*
X133919998Y-69194532D01*
X133693313Y-69214364D01*
X133693302Y-69214366D01*
X133473511Y-69273258D01*
X133473502Y-69273261D01*
X133267267Y-69369431D01*
X133267265Y-69369432D01*
X133080858Y-69499954D01*
X132919954Y-69660858D01*
X132894912Y-69696623D01*
X132840335Y-69740248D01*
X132793337Y-69749500D01*
X127063705Y-69749500D01*
X127045735Y-69748191D01*
X127021972Y-69744710D01*
X126977512Y-69748601D01*
X126969931Y-69749264D01*
X126964530Y-69749500D01*
X126956289Y-69749500D01*
X126934579Y-69752037D01*
X126923724Y-69753306D01*
X126908419Y-69754645D01*
X126847199Y-69760001D01*
X126840132Y-69761460D01*
X126840120Y-69761404D01*
X126832763Y-69763035D01*
X126832777Y-69763092D01*
X126825743Y-69764759D01*
X126753575Y-69791025D01*
X126680675Y-69815181D01*
X126674126Y-69818236D01*
X126674101Y-69818183D01*
X126667308Y-69821471D01*
X126667334Y-69821523D01*
X126660880Y-69824764D01*
X126596708Y-69866971D01*
X126531347Y-69907285D01*
X126525683Y-69911765D01*
X126525647Y-69911719D01*
X126519798Y-69916484D01*
X126519835Y-69916528D01*
X126514310Y-69921164D01*
X126461598Y-69977034D01*
X125514358Y-70924272D01*
X125500729Y-70936051D01*
X125481468Y-70950390D01*
X125447898Y-70990397D01*
X125444253Y-70994376D01*
X125438409Y-71000222D01*
X125418059Y-71025959D01*
X125368695Y-71084789D01*
X125364729Y-71090819D01*
X125364682Y-71090788D01*
X125360630Y-71097147D01*
X125360679Y-71097177D01*
X125356889Y-71103321D01*
X125324424Y-71172941D01*
X125289960Y-71241566D01*
X125287488Y-71248357D01*
X125287432Y-71248336D01*
X125284960Y-71255450D01*
X125285015Y-71255469D01*
X125282742Y-71262327D01*
X125276772Y-71291244D01*
X125267207Y-71337565D01*
X125254001Y-71393284D01*
X125249498Y-71412286D01*
X125248661Y-71419454D01*
X125248601Y-71419447D01*
X125247835Y-71426945D01*
X125247895Y-71426951D01*
X125247265Y-71434140D01*
X125249500Y-71510916D01*
X125249500Y-73466448D01*
X125229815Y-73533487D01*
X125177011Y-73579242D01*
X125107853Y-73589186D01*
X125044297Y-73560161D01*
X125018113Y-73528448D01*
X124991815Y-73482898D01*
X124823561Y-73271915D01*
X124823560Y-73271914D01*
X124823557Y-73271910D01*
X124625741Y-73088365D01*
X124571466Y-73051361D01*
X124402775Y-72936349D01*
X124402772Y-72936348D01*
X124402770Y-72936346D01*
X124320698Y-72896822D01*
X124268838Y-72849999D01*
X124250500Y-72785102D01*
X124250500Y-68862229D01*
X124270185Y-68795190D01*
X124286819Y-68774548D01*
X125274548Y-67786819D01*
X125335871Y-67753334D01*
X125362229Y-67750500D01*
X142637770Y-67750500D01*
X142704809Y-67770185D01*
X142725451Y-67786819D01*
X143293181Y-68354548D01*
X143326666Y-68415871D01*
X143329500Y-68442229D01*
X143329500Y-69373336D01*
X143309815Y-69440375D01*
X143276625Y-69474910D01*
X143240863Y-69499951D01*
X143079951Y-69660862D01*
X142949432Y-69847265D01*
X142949431Y-69847267D01*
X142853261Y-70053502D01*
X142853258Y-70053511D01*
X142794366Y-70273302D01*
X142794364Y-70273313D01*
X142774532Y-70499998D01*
X142774532Y-70500001D01*
X142794364Y-70726686D01*
X142794366Y-70726697D01*
X142853258Y-70946488D01*
X142853261Y-70946497D01*
X142949431Y-71152732D01*
X142949432Y-71152734D01*
X143079954Y-71339141D01*
X143240858Y-71500045D01*
X143240861Y-71500047D01*
X143427266Y-71630568D01*
X143633504Y-71726739D01*
X143853308Y-71785635D01*
X144015230Y-71799801D01*
X144079998Y-71805468D01*
X144080000Y-71805468D01*
X144080002Y-71805468D01*
X144136673Y-71800509D01*
X144306692Y-71785635D01*
X144526496Y-71726739D01*
X144732734Y-71630568D01*
X144919139Y-71500047D01*
X145080047Y-71339139D01*
X145127695Y-71271089D01*
X145182269Y-71227465D01*
X145251767Y-71220271D01*
X145306730Y-71245384D01*
X147453462Y-72962770D01*
X147493514Y-73020020D01*
X147500000Y-73059597D01*
X147500000Y-83940402D01*
X147480315Y-84007441D01*
X147453462Y-84037230D01*
X145033965Y-85972828D01*
X144969319Y-85999336D01*
X144956503Y-86000000D01*
X107051362Y-86000000D01*
X106984323Y-85980315D01*
X106963681Y-85963681D01*
X105036319Y-84036319D01*
X105002834Y-83974996D01*
X105000000Y-83948638D01*
X105000000Y-83829999D01*
X117221127Y-83829999D01*
X117221128Y-83830000D01*
X118184314Y-83830000D01*
X118172359Y-83841955D01*
X118114835Y-83954852D01*
X118095014Y-84080000D01*
X118114835Y-84205148D01*
X118172359Y-84318045D01*
X118184314Y-84330000D01*
X117221128Y-84330000D01*
X117273730Y-84526317D01*
X117273734Y-84526326D01*
X117369865Y-84732482D01*
X117500342Y-84918820D01*
X117661179Y-85079657D01*
X117847517Y-85210134D01*
X118053673Y-85306265D01*
X118053682Y-85306269D01*
X118249999Y-85358872D01*
X118250000Y-85358871D01*
X118250000Y-84395686D01*
X118261955Y-84407641D01*
X118374852Y-84465165D01*
X118468519Y-84480000D01*
X118531481Y-84480000D01*
X118625148Y-84465165D01*
X118738045Y-84407641D01*
X118750000Y-84395686D01*
X118750000Y-85358872D01*
X118946317Y-85306269D01*
X118946326Y-85306265D01*
X119152482Y-85210134D01*
X119338820Y-85079657D01*
X119499657Y-84918820D01*
X119630134Y-84732482D01*
X119726265Y-84526326D01*
X119726269Y-84526317D01*
X119778872Y-84330000D01*
X118815686Y-84330000D01*
X118827641Y-84318045D01*
X118885165Y-84205148D01*
X118904986Y-84080000D01*
X118885165Y-83954852D01*
X118827641Y-83841955D01*
X118815686Y-83830000D01*
X119778872Y-83830000D01*
X119778872Y-83829999D01*
X119726269Y-83633682D01*
X119726265Y-83633673D01*
X119630134Y-83427517D01*
X119499657Y-83241179D01*
X119338820Y-83080342D01*
X119152482Y-82949865D01*
X118946328Y-82853734D01*
X118750000Y-82801127D01*
X118750000Y-83764314D01*
X118738045Y-83752359D01*
X118625148Y-83694835D01*
X118531481Y-83680000D01*
X118468519Y-83680000D01*
X118374852Y-83694835D01*
X118261955Y-83752359D01*
X118250000Y-83764314D01*
X118250000Y-82801127D01*
X118053671Y-82853734D01*
X117847517Y-82949865D01*
X117661179Y-83080342D01*
X117500342Y-83241179D01*
X117369865Y-83427517D01*
X117273734Y-83633673D01*
X117273730Y-83633682D01*
X117221127Y-83829999D01*
X105000000Y-83829999D01*
X105000000Y-81000004D01*
X106694451Y-81000004D01*
X106714616Y-81269101D01*
X106774664Y-81532188D01*
X106774666Y-81532195D01*
X106873256Y-81783396D01*
X106873258Y-81783400D01*
X106893394Y-81818277D01*
X107008185Y-82017102D01*
X107106588Y-82140495D01*
X107176442Y-82228089D01*
X107363183Y-82401358D01*
X107374259Y-82411635D01*
X107597226Y-82563651D01*
X107840359Y-82680738D01*
X108098228Y-82760280D01*
X108098229Y-82760280D01*
X108098232Y-82760281D01*
X108365063Y-82800499D01*
X108365068Y-82800499D01*
X108365071Y-82800500D01*
X108365072Y-82800500D01*
X108634928Y-82800500D01*
X108634929Y-82800500D01*
X108634936Y-82800499D01*
X108901767Y-82760281D01*
X108901768Y-82760280D01*
X108901772Y-82760280D01*
X109159641Y-82680738D01*
X109352878Y-82587680D01*
X109402767Y-82563655D01*
X109402767Y-82563654D01*
X109402775Y-82563651D01*
X109625741Y-82411635D01*
X109747168Y-82298967D01*
X109763728Y-82283602D01*
X109826260Y-82252433D01*
X109848069Y-82250500D01*
X113630864Y-82250500D01*
X113697903Y-82270185D01*
X113734672Y-82306677D01*
X113811836Y-82424785D01*
X113980256Y-82607738D01*
X114176491Y-82760474D01*
X114395190Y-82878828D01*
X114630386Y-82959571D01*
X114875665Y-83000500D01*
X115124335Y-83000500D01*
X115369614Y-82959571D01*
X115604810Y-82878828D01*
X115823509Y-82760474D01*
X116019744Y-82607738D01*
X116188164Y-82424785D01*
X116324173Y-82216607D01*
X116424063Y-81988881D01*
X116485108Y-81747821D01*
X116485109Y-81747812D01*
X116505643Y-81500005D01*
X116505643Y-81499994D01*
X116485109Y-81252187D01*
X116485107Y-81252175D01*
X116424063Y-81011118D01*
X116324173Y-80783393D01*
X116188166Y-80575217D01*
X116149085Y-80532764D01*
X116019744Y-80392262D01*
X115823509Y-80239526D01*
X115823507Y-80239525D01*
X115823506Y-80239524D01*
X115604811Y-80121172D01*
X115604802Y-80121169D01*
X115369616Y-80040429D01*
X115124335Y-79999500D01*
X114875665Y-79999500D01*
X114630383Y-80040429D01*
X114395197Y-80121169D01*
X114395188Y-80121172D01*
X114176493Y-80239524D01*
X114037825Y-80347454D01*
X113980256Y-80392262D01*
X113811836Y-80575215D01*
X113747989Y-80672941D01*
X113734673Y-80693322D01*
X113681526Y-80738678D01*
X113630864Y-80749500D01*
X110388516Y-80749500D01*
X110321477Y-80729815D01*
X110275722Y-80677011D01*
X110267625Y-80653093D01*
X110247713Y-80565856D01*
X110225334Y-80467805D01*
X110126743Y-80216602D01*
X109991815Y-79982898D01*
X109823561Y-79771915D01*
X109823560Y-79771914D01*
X109823557Y-79771910D01*
X109625741Y-79588365D01*
X109603284Y-79573054D01*
X109402775Y-79436349D01*
X109402769Y-79436346D01*
X109402768Y-79436345D01*
X109402767Y-79436344D01*
X109159643Y-79319263D01*
X109159645Y-79319263D01*
X108901773Y-79239720D01*
X108901767Y-79239718D01*
X108634936Y-79199500D01*
X108634929Y-79199500D01*
X108365071Y-79199500D01*
X108365063Y-79199500D01*
X108098232Y-79239718D01*
X108098226Y-79239720D01*
X107840358Y-79319262D01*
X107597230Y-79436346D01*
X107374258Y-79588365D01*
X107176442Y-79771910D01*
X107008185Y-79982898D01*
X106873258Y-80216599D01*
X106873256Y-80216603D01*
X106774666Y-80467804D01*
X106774664Y-80467811D01*
X106714616Y-80730898D01*
X106694451Y-80999995D01*
X106694451Y-81000004D01*
X105000000Y-81000004D01*
X105000000Y-77347844D01*
X106700000Y-77347844D01*
X106706401Y-77407372D01*
X106706403Y-77407379D01*
X106756645Y-77542086D01*
X106756649Y-77542093D01*
X106842809Y-77657187D01*
X106842812Y-77657190D01*
X106957906Y-77743350D01*
X106957913Y-77743354D01*
X107092620Y-77793596D01*
X107092627Y-77793598D01*
X107152155Y-77799999D01*
X107152172Y-77800000D01*
X108250000Y-77800000D01*
X108250000Y-76604310D01*
X108258817Y-76609158D01*
X108417886Y-76650000D01*
X108540894Y-76650000D01*
X108662933Y-76634583D01*
X108750000Y-76600110D01*
X108750000Y-77800000D01*
X109847828Y-77800000D01*
X109847844Y-77799999D01*
X109907372Y-77793598D01*
X109907379Y-77793596D01*
X110042086Y-77743354D01*
X110042093Y-77743350D01*
X110157187Y-77657190D01*
X110157190Y-77657187D01*
X110243350Y-77542093D01*
X110243354Y-77542086D01*
X110293596Y-77407379D01*
X110293598Y-77407372D01*
X110299999Y-77347844D01*
X110300000Y-77347827D01*
X110300000Y-76250000D01*
X109100728Y-76250000D01*
X109123100Y-76202457D01*
X109153873Y-76041138D01*
X109143561Y-75877234D01*
X109102220Y-75750000D01*
X110300000Y-75750000D01*
X110300000Y-74652172D01*
X110299999Y-74652155D01*
X110293598Y-74592627D01*
X110293596Y-74592620D01*
X110243354Y-74457913D01*
X110243350Y-74457906D01*
X110157190Y-74342812D01*
X110157187Y-74342809D01*
X110042093Y-74256649D01*
X110042086Y-74256645D01*
X109907379Y-74206403D01*
X109907372Y-74206401D01*
X109847844Y-74200000D01*
X108750000Y-74200000D01*
X108750000Y-75395689D01*
X108741183Y-75390842D01*
X108582114Y-75350000D01*
X108459106Y-75350000D01*
X108337067Y-75365417D01*
X108250000Y-75399889D01*
X108250000Y-74200000D01*
X107152155Y-74200000D01*
X107092627Y-74206401D01*
X107092620Y-74206403D01*
X106957913Y-74256645D01*
X106957906Y-74256649D01*
X106842812Y-74342809D01*
X106842809Y-74342812D01*
X106756649Y-74457906D01*
X106756645Y-74457913D01*
X106706403Y-74592620D01*
X106706401Y-74592627D01*
X106700000Y-74652155D01*
X106700000Y-75750000D01*
X107899272Y-75750000D01*
X107876900Y-75797543D01*
X107846127Y-75958862D01*
X107856439Y-76122766D01*
X107897780Y-76250000D01*
X106700000Y-76250000D01*
X106700000Y-77347844D01*
X105000000Y-77347844D01*
X105000000Y-73051361D01*
X105019685Y-72984322D01*
X105036314Y-72963685D01*
X106708756Y-71291242D01*
X106770077Y-71257759D01*
X106839769Y-71262743D01*
X106895702Y-71304615D01*
X106898010Y-71307801D01*
X106919956Y-71339143D01*
X107080858Y-71500045D01*
X107080861Y-71500047D01*
X107267266Y-71630568D01*
X107473504Y-71726739D01*
X107693308Y-71785635D01*
X107855230Y-71799801D01*
X107919998Y-71805468D01*
X107920000Y-71805468D01*
X107920002Y-71805468D01*
X107976673Y-71800509D01*
X108146692Y-71785635D01*
X108366496Y-71726739D01*
X108572734Y-71630568D01*
X108759139Y-71500047D01*
X108920047Y-71339139D01*
X109050568Y-71152734D01*
X109146739Y-70946496D01*
X109205635Y-70726692D01*
X109225468Y-70500000D01*
X109205635Y-70273308D01*
X109146739Y-70053504D01*
X109050568Y-69847266D01*
X108920047Y-69660861D01*
X108759139Y-69499953D01*
X108754373Y-69496615D01*
X108723375Y-69474910D01*
X108679751Y-69420332D01*
X108670500Y-69373336D01*
X108670500Y-68442229D01*
X108690185Y-68375190D01*
X108706819Y-68354548D01*
X109274548Y-67786819D01*
X109335871Y-67753334D01*
X109362229Y-67750500D01*
X121637770Y-67750500D01*
X121704809Y-67770185D01*
G37*
%TD.AperFunction*%
%TA.AperFunction,Conductor*%
G36*
X129701261Y-82527490D02*
G01*
X129700643Y-82526357D01*
X129700866Y-82523227D01*
X129701261Y-82527490D01*
G37*
%TD.AperFunction*%
%TD*%
M02*
